<?xml version="1.0" encoding="UTF-8" standalone="no"?>
<!-- Created with Inkscape (http://www.inkscape.org/) -->

<svg
   xmlns:dc="http://purl.org/dc/elements/1.1/"
   xmlns:cc="http://creativecommons.org/ns#"
   xmlns:rdf="http://www.w3.org/1999/02/22-rdf-syntax-ns#"
   xmlns:svg="http://www.w3.org/2000/svg"
   xmlns="http://www.w3.org/2000/svg"
   xmlns:xlink="http://www.w3.org/1999/xlink"
   xmlns:sodipodi="http://sodipodi.sourceforge.net/DTD/sodipodi-0.dtd"
   xmlns:inkscape="http://www.inkscape.org/namespaces/inkscape"
   width="24.954792"
   height="24.954817"
   viewBox="0 0 6.6026224 6.602629"
   version="1.1"
   id="svg982"
   inkscape:version="0.92.3 (2405546, 2018-03-11)"
   sodipodi:docname="logoAutogenerado.svg"
   inkscape:export-filename="/home/elbosque/Imágenes/DiseñoUI/AppEscuelita/phats/Imagotypo.png"
   inkscape:export-xdpi="199"
   inkscape:export-ydpi="199">
  <defs
     id="defs976" />
  <sodipodi:namedview
     id="base"
     pagecolor="#ffffff"
     bordercolor="#666666"
     borderopacity="1.0"
     inkscape:pageopacity="0.0"
     inkscape:pageshadow="2"
     inkscape:zoom="22.648916"
     inkscape:cx="13.066461"
     inkscape:cy="13.513177"
     inkscape:document-units="mm"
     inkscape:current-layer="g974"
     showgrid="false"
     fit-margin-top="2"
     fit-margin-left="2"
     fit-margin-right="2"
     fit-margin-bottom="2"
     units="px"
     inkscape:window-width="1600"
     inkscape:window-height="876"
     inkscape:window-x="0"
     inkscape:window-y="0"
     inkscape:window-maximized="1"
     inkscape:snap-global="false"
     showguides="false"
     inkscape:guide-bbox="true">
    <sodipodi:guide
       position="5.1988201,4.7088902"
       orientation="0,1"
       id="guide4387"
       inkscape:locked="false" />
    <sodipodi:guide
       position="3.3013311,1.4038218"
       orientation="1,0"
       id="guide4389"
       inkscape:locked="false" />
  </sodipodi:namedview>
  <metadata
     id="metadata979">
    <rdf:RDF>
      <cc:Work
         rdf:about="">
        <dc:format>image/svg+xml</dc:format>
        <dc:type
           rdf:resource="http://purl.org/dc/dcmitype/StillImage" />
        <dc:title></dc:title>
      </cc:Work>
    </rdf:RDF>
  </metadata>
  <g
     inkscape:label="Capa 1"
     inkscape:groupmode="layer"
     id="layer1"
     transform="translate(101.68877,-149.84471)">
    <g
       transform="matrix(0.24622151,0,0,0.24622151,-124.63464,124.87969)"
       id="g974">
      <flowRoot
         xml:space="preserve"
         id="flowRoot3629"
         style="font-style:normal;font-variant:normal;font-weight:normal;font-stretch:normal;font-size:1.33333337px;line-height:1.25;font-family:'Baloo Chettan 2';-inkscape-font-specification:'Baloo Chettan 2, ';font-variant-ligatures:normal;font-variant-caps:normal;font-variant-numeric:normal;font-feature-settings:normal;text-align:start;writing-mode:lr-tb;text-anchor:start;opacity:0.75700001;fill:#ffffff;fill-opacity:1;stroke:#ec1e28;stroke-width:0.20200001;stroke-linejoin:round;stroke-miterlimit:4;stroke-dasharray:none;stroke-opacity:1;paint-order:markers stroke fill"
         transform="matrix(1.0745744,0,0,1.0745744,120.07894,111.89936)"><flowRegion
           id="flowRegion3631"><rect
             id="rect3633"
             width="10.638397"
             height="2.5285468"
             x="5.5504684"
             y="0.41918111" /></flowRegion><flowPara
           id="flowPara3635"></flowPara></flowRoot>      <path
         sodipodi:nodetypes="cczcc"
         inkscape:connector-curvature="0"
         id="path4385"
         d="m 106.59988,126.05917 c 0,0 -11.258743,-5.06689 -11.258743,-19.61062 0,0 4.425115,-2.90689 11.258743,-2.90689 6.83363,0 11.25874,2.90689 11.25874,2.90689 0,14.5468 -11.25874,19.61062 -11.25874,19.61062 z"
         style="fill:#ffff00;fill-opacity:1;stroke:none;stroke-width:0.07504977;stroke-linecap:butt;stroke-linejoin:miter;stroke-miterlimit:4;stroke-dasharray:none;stroke-opacity:1" />
      <path
         style="fill:#ec1e28;fill-opacity:1;stroke:none;stroke-width:0.07204226;stroke-linecap:butt;stroke-linejoin:miter;stroke-miterlimit:4;stroke-dasharray:none;stroke-opacity:1"
         d="m 106.59988,125.60798 c 0,0 -10.807558,-4.86383 -10.807558,-18.82473 0,0 4.247758,-2.7904 10.807558,-2.7904 6.5598,0 10.80756,2.7904 10.80756,2.7904 0,13.96384 -10.80756,18.82473 -10.80756,18.82473 z"
         id="path4391"
         inkscape:connector-curvature="0"
         sodipodi:nodetypes="cczcc" />
      <path
         sodipodi:nodetypes="cczcc"
         inkscape:connector-curvature="0"
         id="path4393"
         d="m 106.59988,122.25301 c 0,0 -7.452594,-3.35396 -7.452594,-12.98101 0,0 2.929134,-1.92418 7.452594,-1.92418 4.52346,0 7.45259,1.92418 7.45259,1.92418 0,9.62908 -7.45259,12.98101 -7.45259,12.98101 z"
         style="fill:#ffff00;fill-opacity:1;stroke:none;stroke-width:0.04967836;stroke-linecap:butt;stroke-linejoin:miter;stroke-miterlimit:4;stroke-dasharray:none;stroke-opacity:1" />
      <path
         style="fill:#1010a8;fill-opacity:1;stroke:none;stroke-width:0.04573179;stroke-linecap:butt;stroke-linejoin:miter;stroke-miterlimit:4;stroke-dasharray:none;stroke-opacity:1"
         d="m 106.59988,121.66096 c 0,0 -6.860542,-3.08752 -6.860542,-11.94977 0,0 2.696432,-1.77132 6.860542,-1.77132 4.1641,0 6.86054,1.77132 6.86054,1.77132 0,8.86412 -6.86054,11.94977 -6.86054,11.94977 z"
         id="path4395"
         inkscape:connector-curvature="0"
         sodipodi:nodetypes="cczcc" />
      <g
         transform="matrix(0.46104341,0,0,0.46104341,50.431177,54.123186)"
         id="g4401"
         style="display:inline">
        <path
           style="fill:#ffffff;stroke:none;stroke-width:0.26458332px;stroke-linecap:butt;stroke-linejoin:miter;stroke-opacity:1"
           d="m 121.83294,138.7414 c 0,0 -0.63969,-0.7012 -1.18918,-0.94314 -0.54948,-0.24193 -1.61973,-0.6725 -2.17742,-0.91033 -0.55768,-0.23784 -2.19381,-0.70121 -2.88682,-1.52953 -0.693,-0.82832 -1.32859,-1.49672 -1.31219,-3.18616 0.0164,-1.68945 0.31165,-4.11701 0.47567,-4.90432 0.16402,-0.78732 0.0902,-2.86222 -0.15582,-3.98578 -0.24604,-1.12357 -0.20525,-1.16057 0.0151,-1.28815 0.22037,-0.12759 1.77453,0.6147 2.99235,0.56831 1.21782,-0.0464 2.6212,-0.23197 3.39829,-0.83507 0.77708,-0.60311 0.86986,-0.63791 0.86986,-0.63791 0,0 1.04385,1.13663 3.15473,1.42659 2.11088,0.28995 3.85062,-0.75389 4.08258,-0.46393 0.23197,0.28995 0.13918,0.52192 0.0464,0.91626 -0.0928,0.39434 -0.53352,1.46138 -0.35955,3.23591 0.17397,1.77453 0.89306,5.19602 0.52192,6.86616 -0.37114,1.67015 -1.43818,2.93436 -3.93181,3.76943 -2.49362,0.83508 -3.54413,1.90166 -3.54413,1.90166 z"
           id="path4397"
           inkscape:connector-curvature="0" />
        <path
           style="fill:#ec1e28;fill-opacity:1;stroke-width:0.01866903"
           d="m 121.57316,138.64591 c -0.25773,-0.27134 -0.48042,-0.45347 -0.78802,-0.64455 -0.19407,-0.12054 -0.63861,-0.34946 -0.85804,-0.44184 -0.43689,-0.18395 -0.44987,-0.18897 -1.64287,-0.63503 -1.04967,-0.39248 -1.60793,-0.65637 -2.15381,-1.01813 -0.32278,-0.21391 -0.50256,-0.36049 -0.75934,-0.61911 -0.64254,-0.64714 -1.00446,-1.39098 -1.16451,-2.39333 -0.0899,-0.5633 -0.0906,-1.69558 -0.001,-2.55416 0.0473,-0.45572 0.15219,-1.22934 0.28877,-2.1304 0.0932,-0.61517 0.17442,-1.24966 0.2269,-1.77356 0.0589,-0.58851 0.0591,-1.64294 2.5e-4,-2.10026 -0.0757,-0.58889 -0.13651,-0.85694 -0.32119,-1.41692 -0.14395,-0.43649 -0.15885,-0.5194 -0.12034,-0.66994 0.0654,-0.2558 0.23926,-0.39275 0.4937,-0.38893 0.14337,0.002 0.2219,0.0237 0.65461,0.17944 0.45383,0.16337 0.90675,0.27319 1.51219,0.36665 0.24209,0.0374 0.33976,0.0418 0.92412,0.0415 0.58092,-2.2e-4 0.68238,-0.005 0.91454,-0.0413 0.57424,-0.0904 1.11886,-0.2545 1.57777,-0.47557 0.43023,-0.20725 0.67268,-0.35844 1.16309,-0.72534 0.16223,-0.12137 0.302,-0.22068 0.31058,-0.22068 0.009,0 0.0901,0.0568 0.18109,0.12629 0.65359,0.4988 1.03401,0.72627 1.58432,0.94733 0.39112,0.15712 0.80286,0.26925 1.27883,0.34827 0.22789,0.0378 0.31461,0.0418 0.90545,0.0414 0.61367,-4.5e-4 0.67385,-0.004 0.98945,-0.051 0.59006,-0.0887 1.02669,-0.19663 1.50286,-0.37144 0.38884,-0.14275 0.46624,-0.16311 0.61608,-0.1621 0.20655,10e-4 0.35798,0.0912 0.45416,0.26944 0.0329,0.0609 0.0402,0.10559 0.0399,0.2427 -3.5e-4,0.15501 -0.009,0.19258 -0.10812,0.48539 -0.177,0.52141 -0.25483,0.85261 -0.3334,1.41885 -0.0372,0.26799 -0.0415,0.37644 -0.0416,1.0548 -2.4e-4,0.99434 0.0315,1.32218 0.30626,3.1644 0.27418,1.83834 0.33413,2.51659 0.30939,3.50044 -0.0123,0.48816 -0.0209,0.59409 -0.0783,0.96146 -0.11076,0.70882 -0.38515,1.37919 -0.77656,1.89726 -0.60544,0.80134 -1.46525,1.36878 -2.91128,1.9213 -0.13688,0.0523 -0.27828,0.10696 -0.31422,0.12146 -0.0359,0.0145 -0.33418,0.12687 -0.66275,0.2497 -0.96738,0.36164 -1.42314,0.5635 -1.84352,0.8165 -0.37964,0.22848 -0.59804,0.4065 -0.89747,0.73153 -0.10082,0.10945 -0.18923,0.20117 -0.19645,0.20381 -0.007,0.003 -0.12472,-0.11268 -0.26112,-0.25628 z m 0.44296,-0.25028 c 0.21627,-0.21116 0.26384,-0.25165 0.47023,-0.40022 0.51027,-0.3673 1.14413,-0.66122 2.51873,-1.16793 0.92167,-0.33975 1.23681,-0.46962 1.68601,-0.69479 0.34047,-0.17067 0.47895,-0.2501 0.75219,-0.43144 0.93128,-0.61806 1.50963,-1.46604 1.73547,-2.54459 0.10304,-0.49208 0.11098,-0.60039 0.10948,-1.49353 -0.001,-0.72271 -0.007,-0.88055 -0.0426,-1.21349 -0.0571,-0.52957 -0.13704,-1.14639 -0.19967,-1.54019 -0.0147,-0.0924 -0.0314,-0.21003 -0.0371,-0.26137 -0.006,-0.0513 -0.0182,-0.13535 -0.0278,-0.18669 -0.0159,-0.0853 -0.0737,-0.47136 -0.11182,-0.74676 -0.0269,-0.19405 -0.12686,-1.00353 -0.1372,-1.11081 -0.0579,-0.6004 -0.071,-0.90054 -0.062,-1.41884 0.0164,-0.94523 0.12237,-1.58593 0.39489,-2.38793 0.11588,-0.34103 0.13138,-0.45512 0.077,-0.56681 -0.0861,-0.17678 -0.2387,-0.19573 -0.58972,-0.0732 -0.11808,0.0412 -0.29871,0.10566 -0.40139,0.14322 -0.33312,0.12186 -0.90559,0.24935 -1.48419,0.33055 -0.39856,0.0559 -1.31978,0.061 -1.68954,0.009 -1.14381,-0.16 -2.00153,-0.52258 -2.95526,-1.24927 l -0.19223,-0.14647 -0.25582,0.19058 c -0.34387,0.25619 -0.344,0.25628 -0.53586,0.3742 -0.72809,0.44751 -1.47164,0.70988 -2.3523,0.83004 -0.18758,0.0256 -0.37199,0.0332 -0.8121,0.0334 -0.6134,3.4e-4 -0.90678,-0.0265 -1.43751,-0.1314 -0.49986,-0.0988 -0.69134,-0.15209 -1.18549,-0.32975 -0.3648,-0.13116 -0.46999,-0.15454 -0.56773,-0.12618 -0.12023,0.0349 -0.20703,0.15833 -0.20703,0.29446 0,0.0359 0.0538,0.23015 0.11953,0.43177 0.18663,0.57241 0.21226,0.67274 0.28915,1.13203 0.11124,0.66438 0.13573,1.62661 0.0615,2.41764 -0.0458,0.48871 -0.0861,0.84832 -0.12451,1.1108 -0.0456,0.31206 -0.0989,0.67912 -0.13143,0.90545 -0.017,0.11808 -0.0464,0.31131 -0.0653,0.42939 -0.13691,0.85408 -0.23428,1.75261 -0.26203,2.41799 -0.0208,0.49948 -10e-4,1.22677 0.0403,1.51185 0.15587,1.06394 0.51809,1.82144 1.17233,2.4516 0.53265,0.51305 1.14505,0.87704 2.19546,1.30491 0.16429,0.0669 0.34071,0.13694 0.39205,0.15561 0.0513,0.0187 0.16055,0.059 0.2427,0.0896 0.0821,0.0306 0.30057,0.11132 0.48539,0.17931 0.18483,0.068 0.38645,0.14361 0.44806,0.16804 0.0616,0.0244 0.2195,0.0869 0.35086,0.13879 0.25754,0.10176 0.26381,0.10451 0.60663,0.26559 0.55862,0.26249 0.97324,0.54137 1.34814,0.90676 0.0975,0.0951 0.18069,0.17308 0.18477,0.17334 0.004,2.7e-4 0.0881,-0.0783 0.18669,-0.17456 z m -0.4088,-0.35134 c -0.53486,-0.4681 -1.24073,-0.83425 -2.51401,-1.30407 -0.78652,-0.29022 -1.20627,-0.45042 -1.34115,-0.51186 -0.0308,-0.014 -0.11481,-0.0488 -0.18669,-0.0774 -0.18611,-0.0738 -0.75248,-0.3597 -0.95975,-0.48442 -1.07139,-0.64468 -1.68993,-1.50741 -1.91571,-2.67198 -0.0798,-0.41163 -0.0934,-0.6195 -0.0906,-1.38748 0.002,-0.61711 0.009,-0.72913 0.0817,-1.43751 0.0308,-0.29832 0.10794,-0.8651 0.19825,-1.45619 0.14464,-0.94665 0.24174,-1.68891 0.30041,-2.29629 0.0476,-0.49237 0.0469,-1.6811 -0.001,-2.08159 -0.079,-0.65806 -0.14151,-0.93601 -0.36014,-1.60015 -0.0565,-0.17159 -0.10001,-0.33541 -0.0967,-0.36405 0.005,-0.0477 0.0122,-0.0519 0.0807,-0.0499 0.0411,0.001 0.22933,0.0583 0.41836,0.12697 0.45774,0.16625 0.89483,0.28167 1.34586,0.3554 0.42616,0.0697 0.59206,0.0878 0.95566,0.10472 0.7729,0.0359 1.46514,-0.0382 2.12473,-0.22727 0.70349,-0.20168 1.41928,-0.56051 1.98825,-0.99671 0.0821,-0.063 0.15973,-0.12065 0.17241,-0.12818 0.014,-0.008 0.0838,0.0321 0.17735,0.10244 0.70784,0.53267 1.49602,0.90851 2.29093,1.09241 0.39971,0.0925 0.7085,0.13563 1.12112,0.15671 0.41447,0.0212 0.9608,0.002 1.3255,-0.0474 0.58026,-0.078 1.2337,-0.23113 1.63354,-0.38281 0.46541,-0.17657 0.56715,-0.19471 0.58493,-0.10428 0.003,0.0173 -0.0354,0.15503 -0.0863,0.30604 -0.27961,0.83046 -0.37835,1.3634 -0.41576,2.24414 -0.0352,0.82728 0.0312,1.70162 0.23365,3.08039 0.32052,2.18257 0.34939,2.42684 0.38274,3.23907 0.039,0.95063 -0.0287,1.66591 -0.21294,2.24963 -0.0883,0.27974 -0.14898,0.41545 -0.35468,0.79343 -0.0591,0.10866 -0.27243,0.39827 -0.39186,0.53207 -0.52114,0.58381 -1.25839,1.0442 -2.3815,1.48718 -0.33407,0.13176 -0.39739,0.15582 -1.07347,0.4079 -0.34911,0.13017 -0.65995,0.2477 -0.69075,0.26119 -0.0308,0.0135 -0.16522,0.0707 -0.2987,0.12708 -0.75583,0.31938 -1.27374,0.62999 -1.683,1.00936 -0.0734,0.068 -0.13641,0.12317 -0.14001,0.12249 -0.004,-6.7e-4 -0.10317,-0.0858 -0.22125,-0.18912 z m -2.88437,-2.29934 c 0.26521,-0.0708 0.44302,-0.24493 0.52358,-0.51259 0.0388,-0.12884 0.0512,-0.31661 0.0296,-0.44794 -0.0396,-0.24103 -0.15056,-0.40702 -0.54474,-0.81513 -0.29504,-0.30546 -0.36848,-0.40504 -0.3844,-0.52122 -0.01,-0.0702 -0.003,-0.0981 0.039,-0.17018 0.0647,-0.11039 0.14293,-0.15841 0.25822,-0.1585 0.11253,-9e-5 0.19284,0.0334 0.26988,0.1125 0.0765,0.0786 0.0933,0.16187 0.053,0.26271 -0.0338,0.0844 -0.0175,0.12879 0.0472,0.12879 0.0191,0 0.0794,0.0462 0.13412,0.10267 0.0547,0.0565 0.10932,0.10268 0.12138,0.10268 0.044,0 0.045,-0.0933 0.002,-0.22832 -0.0662,-0.20934 -0.0605,-0.36293 0.0197,-0.53461 0.0617,-0.13204 0.0629,-0.13853 0.0295,-0.16295 -0.0387,-0.0283 -0.10299,-0.0188 -0.18283,0.027 -0.0439,0.0252 -0.0603,0.026 -0.11202,0.005 -0.22436,-0.0901 -0.49459,-0.10108 -0.64018,-0.0259 -0.156,0.0805 -0.28599,0.26943 -0.34453,0.50065 -0.0728,0.28752 0.15128,0.68286 0.56006,0.98811 0.16685,0.12459 0.24961,0.21524 0.31143,0.34113 0.0444,0.0904 0.0526,0.13049 0.0526,0.25651 0,0.17442 -0.0277,0.24402 -0.14411,0.36155 -0.13903,0.14043 -0.30982,0.15926 -0.44585,0.0492 -0.12408,-0.10044 -0.14162,-0.199 -0.0515,-0.28917 0.0461,-0.0461 0.0731,-0.058 0.12601,-0.0556 0.037,0.002 0.0738,0.002 0.0817,0.001 0.008,-0.001 -0.003,-0.0361 -0.0245,-0.0781 -0.0728,-0.14277 -0.26055,-0.18511 -0.39926,-0.0901 -0.21678,0.14854 -0.21477,0.48106 0.004,0.70027 0.14125,0.14138 0.40258,0.20562 0.61051,0.15008 z m 0.80569,-0.46937 c 0.0903,-0.0377 0.29777,-0.18727 0.31229,-0.22511 0.008,-0.0199 -0.009,-0.0494 -0.0472,-0.0854 l -0.0589,-0.055 0.0108,-0.19116 c 0.0189,-0.33408 0.0991,-0.46926 0.32975,-0.5556 0.12225,-0.0458 0.18186,-0.0356 0.20131,0.0344 0.0195,0.0701 0.018,0.46661 -0.002,0.54112 -0.0126,0.047 -0.0105,0.0606 0.009,0.0602 0.0499,-8.9e-4 0.4178,-0.20138 0.42375,-0.23092 0.003,-0.0165 -0.0113,-0.052 -0.0325,-0.0789 -0.053,-0.0673 -0.15672,-0.39693 -0.2549,-0.80962 -0.22186,-0.93257 -0.2486,-1.10593 -0.20658,-1.33926 0.007,-0.0383 -0.0648,-0.019 -0.1146,0.0308 -0.0933,0.0933 -0.12931,0.1966 -0.21872,0.62678 -0.047,0.22589 -0.0983,0.46952 -0.11416,0.5414 -0.0158,0.0719 -0.0615,0.2903 -0.1015,0.48539 -0.04,0.19509 -0.11436,0.55204 -0.16526,0.79322 -0.0661,0.31311 -0.087,0.44523 -0.073,0.46205 0.0242,0.0292 0.021,0.0293 0.10191,-0.004 z m 0.40313,-1.27356 c -0.0329,-0.0118 -0.0297,-0.0569 0.0244,-0.34187 0.0776,-0.40894 0.0933,-0.44829 0.13609,-0.34014 0.0239,0.0605 0.0682,0.25744 0.0858,0.38172 0.009,0.0612 0.004,0.10347 -0.0147,0.14002 -0.0402,0.0774 -0.18433,0.17719 -0.23151,0.16027 z m 1.38432,0.26303 c 0.19611,-0.10915 0.37024,-0.21033 0.38695,-0.22486 0.0244,-0.0212 0.0326,-0.0804 0.0417,-0.30095 0.006,-0.151 0.0166,-0.30605 0.023,-0.34455 0.01,-0.0575 0.006,-0.07 -0.0192,-0.07 -0.0753,0 -0.13169,0.10751 -0.17809,0.3395 -0.0117,0.0584 -0.0439,0.13991 -0.0716,0.18119 -0.0672,0.10011 -0.24614,0.25222 -0.26936,0.22901 -0.0112,-0.0112 -0.01,-0.38687 0.003,-1.02315 0.0175,-0.83343 0.0263,-1.02216 0.0515,-1.10346 0.0167,-0.0539 0.025,-0.10345 0.0184,-0.11004 -0.0182,-0.0182 -0.15625,0.0409 -0.30218,0.12934 -0.15121,0.0916 -0.1715,0.14037 -0.0992,0.23823 0.0431,0.0584 0.0432,0.0587 0.0389,0.6309 -0.002,0.31487 -0.0126,0.79716 -0.0228,1.07175 -0.0182,0.49275 -0.0157,0.55554 0.0226,0.55554 0.0107,0 0.17993,-0.0893 0.37605,-0.19844 z m 0.90832,-0.54535 c 0.10179,-0.27046 0.28992,-1.10802 0.48464,-2.15767 0.0376,-0.20252 0.073,-0.33545 0.11144,-0.41748 0.031,-0.0662 0.0563,-0.12782 0.0563,-0.13693 0,-0.0362 -0.0802,-0.0125 -0.2369,0.0703 -0.28972,0.15294 -0.30192,0.16771 -0.21948,0.26568 0.0438,0.052 0.0467,0.0663 0.0357,0.17412 -0.0183,0.17948 -0.18752,1.05969 -0.22501,1.17071 -0.0255,0.0754 -0.0796,-0.0927 -0.16685,-0.51861 -0.058,-0.28327 -0.0712,-0.52142 -0.0345,-0.62531 0.0145,-0.0411 0.0196,-0.0815 0.0114,-0.0898 -0.0242,-0.0241 -0.47952,0.21811 -0.48582,0.25846 -0.003,0.019 0.0238,0.0664 0.0595,0.10532 0.0378,0.0413 0.0808,0.11914 0.10307,0.18646 0.0761,0.23049 0.22411,0.90177 0.34579,1.56837 0.0259,0.14187 0.0522,0.2662 0.0584,0.27628 0.0199,0.0323 0.0609,-0.0196 0.10236,-0.12987 z m 0.51779,-0.15178 c 0.15352,-0.0816 0.27454,-0.18054 0.28038,-0.22932 0.004,-0.0345 -0.005,-0.0513 -0.0311,-0.0598 -0.0203,-0.006 -0.0445,-0.0345 -0.0538,-0.0623 -0.0234,-0.0697 0.004,-0.40339 0.0418,-0.50117 0.0525,-0.13758 0.23986,-0.2669 0.38787,-0.26776 0.0892,-5.2e-4 0.0979,0.0208 0.11498,0.27963 0.0101,0.1542 0.007,0.21313 -0.0157,0.27617 -0.0238,0.0667 -0.0244,0.0818 -0.003,0.0899 0.0361,0.0139 0.44026,-0.19257 0.44026,-0.22485 0,-0.0146 -0.0115,-0.038 -0.0256,-0.0521 -0.10068,-0.10067 -0.27281,-0.73616 -0.47167,-1.74131 -0.02,-0.10108 -0.0262,-0.19914 -0.0191,-0.30337 0.0118,-0.17313 -8.1e-4,-0.18773 -0.094,-0.10929 -0.0703,0.0591 -0.13627,0.19472 -0.16844,0.346 -0.0144,0.0675 -0.0549,0.26128 -0.0901,0.4307 -0.0352,0.16943 -0.0854,0.40886 -0.11155,0.53207 -0.0262,0.12322 -0.0762,0.36265 -0.11124,0.53207 -0.035,0.16943 -0.0984,0.47478 -0.14072,0.67857 -0.0424,0.20379 -0.0725,0.38231 -0.067,0.39671 0.0138,0.0361 0.0563,0.0328 0.13798,-0.0106 z m 0.37062,-1.27551 c -0.0278,-0.0207 -0.0264,-0.0435 0.016,-0.27457 0.0666,-0.36264 0.0842,-0.42938 0.11318,-0.42938 0.034,0 0.0788,0.15587 0.10581,0.3686 l 0.0219,0.17259 -0.0644,0.067 c -0.0894,0.093 -0.15338,0.1248 -0.19248,0.0957 z m 1.43599,0.28328 c 0.10146,-0.0255 0.25518,-0.18184 0.33073,-0.33626 0.0879,-0.1796 0.11379,-0.46428 0.0423,-0.46428 -0.0396,0 -0.0473,0.0219 -0.0663,0.18841 -0.0296,0.25944 -0.13343,0.40339 -0.30493,0.42272 -0.0707,0.008 -0.0892,0.002 -0.1473,-0.0492 -0.13628,-0.11964 -0.19196,-0.37372 -0.19067,-0.86996 0.002,-0.73261 0.14156,-1.23271 0.33415,-1.19666 0.0752,0.0141 0.21925,0.16917 0.29331,0.31589 0.0532,0.10539 0.0592,0.111 0.0832,0.0782 0.0187,-0.0255 0.0258,-0.0987 0.0258,-0.26386 0,-0.228 -1.1e-4,-0.22861 -0.0513,-0.26505 -0.062,-0.0441 -0.23205,-0.0967 -0.3127,-0.0967 -0.2519,0 -0.46001,0.19896 -0.57077,0.54566 -0.0853,0.26691 -0.10116,0.39823 -0.10118,0.83585 -1e-5,0.3748 0.005,0.43792 0.0422,0.58592 0.0536,0.2107 0.13219,0.37558 0.2227,0.46713 0.11764,0.11901 0.20667,0.14355 0.37085,0.1022 z m 0.72697,-0.42217 c 0.0938,-0.0463 0.31135,-0.19726 0.32122,-0.22296 0.005,-0.0133 -0.0126,-0.0502 -0.0393,-0.0819 -0.0267,-0.0317 -0.0531,-0.076 -0.0586,-0.0983 -0.006,-0.0223 -0.002,-0.49843 0.008,-1.05803 0.0132,-0.74001 0.0247,-1.03382 0.0419,-1.07743 0.013,-0.033 0.0173,-0.0663 0.01,-0.074 -0.018,-0.018 -0.39868,0.17652 -0.41165,0.21031 -0.005,0.0139 10e-4,0.0362 0.0145,0.0496 0.0729,0.0729 0.0732,0.0785 0.0592,1.11463 l -0.0135,0.99979 -0.0531,0.12107 c -0.0744,0.16969 -0.0441,0.19895 0.12156,0.11728 z m -5.33825,-0.24481 c 0.18143,-0.0877 0.54873,-0.33255 0.65782,-0.43845 0.23767,-0.23072 0.35156,-0.7099 0.30373,-1.27798 -0.0232,-0.27611 -0.0816,-0.60821 -0.12535,-0.71342 -0.0937,-0.22541 -0.34651,-0.2834 -0.65994,-0.15141 -0.18079,0.0761 -0.3876,0.20369 -0.43653,0.26923 l -0.0385,0.0515 0.0517,0.0413 0.0518,0.0413 -0.006,1.01746 c -0.006,0.94179 -0.009,1.02328 -0.0407,1.09573 -0.0689,0.15598 0.01,0.17697 0.24204,0.0646 z m 0.18085,-0.4556 c -0.0114,-0.0142 -0.0239,-0.36258 -0.032,-0.89303 l -0.0133,-0.86969 0.0599,-0.0504 c 0.0886,-0.0745 0.16043,-0.10679 0.24537,-0.11017 0.1286,-0.005 0.18799,0.0985 0.22234,0.3878 0.0395,0.3331 0.005,0.84049 -0.0749,1.09213 -0.0951,0.30066 -0.32319,0.54882 -0.40747,0.44339 z m 6.29799,0.12595 c 0.27802,-0.16293 0.42505,-0.65756 0.4245,-1.42812 -2.7e-4,-0.38754 -0.0272,-0.58385 -0.10157,-0.74081 -0.10249,-0.21627 -0.33352,-0.35703 -0.49759,-0.30317 -0.16348,0.0537 -0.33088,0.20702 -0.41615,0.38123 -0.1818,0.37141 -0.21148,1.04435 -0.0708,1.60554 0.0652,0.26006 0.21959,0.48878 0.35872,0.53138 0.0857,0.0263 0.21239,0.007 0.30291,-0.0461 z m -0.27139,-0.26947 c -0.1111,-0.11894 -0.16122,-0.48024 -0.1433,-1.033 0.0164,-0.50731 0.0789,-0.75552 0.21459,-0.8521 0.12375,-0.0881 0.23574,-0.0213 0.28488,0.16995 0.0391,0.15219 0.0317,1.03366 -0.0106,1.25659 -0.0495,0.26101 -0.0873,0.36453 -0.16174,0.44282 -0.0808,0.0849 -0.11635,0.088 -0.18383,0.0157 z m -4.84519,-0.15681 c 0.0374,-0.0254 0.0884,-0.0529 0.61306,-0.33129 0.22096,-0.11723 0.3008,-0.16901 0.31431,-0.20382 0.0247,-0.0636 0.0294,-0.4737 0.006,-0.48461 -0.0103,-0.005 -0.0713,0.0667 -0.13559,0.15869 -0.0643,0.092 -0.17132,0.2241 -0.23779,0.29361 -0.16085,0.1682 -0.25524,0.20542 -0.3304,0.13026 -0.0304,-0.0304 -0.0366,-0.0846 -0.0517,-0.45364 -0.0143,-0.35008 -0.0128,-0.42574 0.009,-0.45952 0.0319,-0.049 0.18651,-0.10863 0.3262,-0.12571 0.33549,-0.041 0.53259,-0.19865 0.49551,-0.3963 l -0.0122,-0.0653 -0.0379,0.0482 c -0.0566,0.072 -0.12767,0.10112 -0.2909,0.11939 -0.16663,0.0186 -0.29635,0.0693 -0.39159,0.15292 -0.0358,0.0314 -0.0748,0.0538 -0.0867,0.0498 -0.0149,-0.005 -0.0215,-0.0847 -0.0213,-0.25767 2.9e-4,-0.27352 0.0207,-0.34167 0.11782,-0.39357 0.0657,-0.0351 0.20722,-0.0261 0.31094,0.0198 0.0486,0.0215 0.0971,0.0338 0.10766,0.0272 0.0296,-0.0183 0.004,-0.36009 -0.0288,-0.39342 -0.0234,-0.0234 -0.0664,-0.005 -0.33272,0.14607 -0.16819,0.0951 -0.35831,0.20242 -0.42249,0.2384 -0.11598,0.065 -0.14642,0.11373 -0.0914,0.14623 0.0139,0.008 0.034,0.0317 0.0446,0.0523 0.0118,0.0228 0.0256,0.38183 0.0354,0.92411 0.0171,0.94225 0.017,0.95216 -0.003,1.03147 -0.0109,0.0426 -0.007,0.0513 0.0223,0.0513 0.0194,0 0.0519,-0.0112 0.0722,-0.025 z m -4.23838,-0.076 c 0.18096,-0.0836 0.3132,-0.26299 0.38021,-0.51572 0.0319,-0.12035 0.0411,-0.26474 0.0668,-1.05424 0.0164,-0.50313 0.0346,-1.1206 0.0405,-1.37217 0.007,-0.30704 0.0193,-0.48765 0.037,-0.54946 0.0332,-0.11646 0.033,-0.14129 -0.001,-0.14129 -0.0427,0 -0.38498,0.18835 -0.39641,0.21813 -0.006,0.0146 0.009,0.0468 0.0323,0.0716 l 0.0424,0.0452 -0.0127,0.56529 c -0.007,0.31092 -0.0205,0.76693 -0.0299,1.01336 -0.009,0.24643 -0.0221,0.59927 -0.0282,0.7841 -0.006,0.18482 -0.0199,0.3695 -0.0307,0.4104 -0.064,0.24196 -0.25892,0.43543 -0.48853,0.48502 -0.0652,0.0141 -0.0615,0.0674 0.006,0.0877 0.0785,0.0236 0.2832,-0.002 0.38262,-0.048 z m 10.1578,-0.0145 c 0.14011,-0.0819 0.15454,-0.10664 0.10288,-0.17652 -0.0329,-0.0444 -0.0442,-0.0964 -0.0584,-0.26896 -0.0325,-0.39343 -0.0147,-1.02596 0.0289,-1.02596 0.0264,0 0.0351,0.0201 0.2805,0.64408 0.10094,0.2567 0.20412,0.49837 0.2293,0.53705 0.051,0.0784 0.11378,0.10344 0.18178,0.0725 0.0516,-0.0235 0.058,-0.0697 0.0175,-0.12752 -0.0408,-0.0583 -0.0619,-0.18199 -0.0931,-0.54679 -0.0302,-0.3525 -0.032,-0.3137 0.066,-1.37272 0.02,-0.21562 0.0363,-0.42203 0.0363,-0.45867 -4e-5,-0.0989 -0.0505,-0.25062 -0.10482,-0.31521 -0.0549,-0.0652 -0.10848,-0.072 -0.1921,-0.0242 -0.095,0.0542 -0.0933,0.0727 0.02,0.21422 0.0236,0.0294 0.0462,0.0924 0.0537,0.14935 0.012,0.0911 -0.0135,0.45182 -0.0573,0.80743 -0.0101,0.0819 -0.0183,0.1883 -0.0183,0.2365 0,0.19114 -0.037,0.19174 -0.12374,0.002 -0.0364,-0.0796 -0.0866,-0.18922 -0.11145,-0.24366 -0.0583,-0.12755 -0.12899,-0.33046 -0.14503,-0.41653 -0.007,-0.0371 -0.0299,-0.0831 -0.0511,-0.10231 -0.0378,-0.0342 -0.0407,-0.0337 -0.15937,0.0297 -0.0665,0.0355 -0.13716,0.0798 -0.1571,0.0983 -0.034,0.0316 -0.0344,0.0381 -0.008,0.1024 0.0158,0.0378 0.0405,0.0817 0.0549,0.0976 0.0484,0.0534 0.0667,0.194 0.0777,0.59782 0.0133,0.48516 -0.0177,1.1985 -0.0584,1.34417 -0.0158,0.0565 -0.0341,0.13129 -0.0407,0.16627 l -0.012,0.0636 0.0674,-0.011 c 0.0371,-0.006 0.11522,-0.0389 0.1736,-0.073 z m -11.10383,-0.39275 c 0.22273,-0.11869 0.36845,-0.19652 0.67048,-0.3581 0.0941,-0.0503 0.177,-0.10493 0.18427,-0.12135 0.007,-0.0164 0.017,-0.15057 0.0217,-0.29814 0.007,-0.22101 0.004,-0.26682 -0.017,-0.25989 -0.014,0.005 -0.0781,0.0833 -0.14241,0.17495 -0.16718,0.23809 -0.36932,0.45428 -0.46386,0.4961 -0.0924,0.0409 -0.16613,0.0238 -0.19201,-0.0445 -0.009,-0.0233 -0.0223,-0.24641 -0.0299,-0.49582 -0.013,-0.42737 -0.0118,-0.45569 0.021,-0.49197 0.0566,-0.0626 0.12454,-0.0885 0.30984,-0.11833 0.22637,-0.0364 0.34211,-0.0727 0.43452,-0.13625 0.0977,-0.0672 0.16459,-0.19518 0.1485,-0.28416 -0.0157,-0.0868 -0.02,-0.0888 -0.0659,-0.0305 -0.0592,0.0753 -0.1237,0.10038 -0.31205,0.12141 -0.19177,0.0214 -0.28892,0.0581 -0.41948,0.15826 -0.0997,0.0765 -0.11682,0.0813 -0.13355,0.0377 -0.023,-0.0598 0.002,-0.49883 0.0322,-0.57122 0.0607,-0.14456 0.22176,-0.18187 0.42626,-0.0988 0.0627,0.0255 0.12101,0.042 0.12959,0.0367 0.052,-0.0322 0.0187,-0.40602 -0.0394,-0.44238 -0.0285,-0.0178 -0.0481,-0.008 -0.569,0.29355 -0.0924,0.0534 -0.21633,0.12435 -0.27537,0.15755 -0.1062,0.0597 -0.13089,0.0978 -0.0823,0.12671 0.0138,0.008 0.0398,0.0378 0.0579,0.0659 0.0303,0.047 0.033,0.13475 0.0356,1.12476 0.002,0.87811 0.007,1.07384 0.0275,1.07388 0.0136,2e-5 0.12283,-0.0522 0.2427,-0.11608 z m 2.0452,-1.07621 c 0.13874,-0.0753 0.32148,-0.17251 0.63705,-0.33878 0.26945,-0.14197 0.30897,-0.1678 0.32623,-0.21319 0.009,-0.0224 0.0173,-0.13263 0.0195,-0.245 0.005,-0.26272 0.003,-0.30699 -0.0152,-0.30699 -0.008,0 -0.0661,0.0735 -0.12862,0.16336 -0.16286,0.23402 -0.31864,0.4121 -0.42323,0.48384 -0.1673,0.11475 -0.24219,0.0731 -0.26077,-0.14497 -0.0284,-0.33302 -0.0364,-0.79371 -0.0146,-0.83449 0.0344,-0.0643 0.14424,-0.10856 0.35674,-0.14379 0.32424,-0.0538 0.47058,-0.13001 0.53211,-0.27728 0.0522,-0.12501 0.0245,-0.26265 -0.0347,-0.17229 -0.0475,0.0725 -0.13185,0.10607 -0.30837,0.12266 -0.18553,0.0174 -0.32526,0.072 -0.44753,0.17474 -0.0446,0.0375 -0.0887,0.0635 -0.098,0.0577 -0.0281,-0.0174 -0.0207,-0.52325 0.009,-0.59225 0.0672,-0.15769 0.20631,-0.19813 0.40634,-0.1181 0.15136,0.0606 0.1618,0.0605 0.17737,-10e-4 0.0172,-0.0685 -0.0239,-0.3618 -0.055,-0.39293 -0.0211,-0.0211 -0.0445,-0.014 -0.14504,0.0438 -0.0659,0.0379 -0.19605,0.1118 -0.28915,0.16415 -0.444,0.24965 -0.53078,0.30192 -0.5308,0.31971 -10e-6,0.0105 0.0242,0.0404 0.0537,0.0663 l 0.0538,0.0472 0.0135,0.74576 c 0.0197,1.08864 0.0202,1.35582 0.002,1.41318 -0.0215,0.0698 0.002,0.0668 0.1636,-0.0209 z m 7.93579,-0.77335 c 0.30013,-0.30504 0.4257,-0.54985 0.334,-0.65118 -0.0456,-0.0504 -0.091,-0.042 -0.1726,0.0317 -0.13974,0.12625 -0.42328,0.67426 -0.38278,0.7398 0.0272,0.044 0.0969,0.006 0.22138,-0.12036 z m -6.39457,-0.0605 c 0.069,-0.0363 0.15428,-0.0901 0.18942,-0.11954 l 0.0639,-0.0536 -0.0443,-0.0475 c -0.0244,-0.0261 -0.0513,-0.0836 -0.0599,-0.12783 -0.0176,-0.0911 -0.018,-0.40342 -7.2e-4,-0.61239 0.0101,-0.12291 0.016,-0.14002 0.0483,-0.14002 0.0288,0 0.0401,0.0182 0.0523,0.084 0.0596,0.3211 0.12696,0.51972 0.23422,0.69075 0.1312,0.20919 0.27434,0.30128 0.48661,0.31306 0.1757,0.01 0.32522,-0.0365 0.33486,-0.10354 0.005,-0.0323 -0.004,-0.0419 -0.0373,-0.0431 -0.1904,-0.007 -0.28233,-0.0407 -0.39196,-0.14327 -0.0491,-0.046 -0.11146,-0.12249 -0.13847,-0.17004 -0.0774,-0.13621 -0.15208,-0.37722 -0.17777,-0.57357 l -0.0236,-0.18028 0.0549,-0.0385 c 0.17433,-0.12239 0.32093,-0.35196 0.36375,-0.56963 0.0532,-0.27039 -0.0584,-0.59396 -0.24175,-0.70105 -0.0893,-0.0522 -0.31084,-0.0623 -0.46852,-0.0214 -0.14024,0.0364 -0.46589,0.1912 -0.48012,0.22829 -0.005,0.0138 0.0143,0.0597 0.0435,0.10188 l 0.0532,0.0767 0.008,0.38482 c 0.01,0.50216 -0.0295,1.52601 -0.0645,1.66983 -0.0145,0.0599 -0.0265,0.12077 -0.0265,0.13535 0,0.0458 0.0911,0.0297 0.22275,-0.0395 z m 0.24801,-1.37173 c -0.0337,-0.0206 -0.0658,-0.049 -0.0712,-0.0631 -0.005,-0.0142 -0.002,-0.20511 0.009,-0.4243 0.0178,-0.38291 0.0202,-0.39991 0.0617,-0.43347 0.0331,-0.0268 0.0648,-0.0331 0.13667,-0.0271 0.13571,0.0114 0.19905,0.0484 0.24757,0.14465 0.0548,0.1086 0.0535,0.20963 -0.006,0.42987 -0.0518,0.19325 -0.11192,0.31216 -0.18832,0.37225 -0.0617,0.0485 -0.11134,0.0488 -0.18948,0.001 z m 1.57643,0.5207 c 0.0687,-0.0212 0.2028,-0.15823 0.27214,-0.2781 0.11068,-0.19132 0.14803,-0.50379 0.0602,-0.50379 -0.0309,0 -0.0402,0.0297 -0.0645,0.20536 -0.0333,0.24107 -0.12086,0.36264 -0.28283,0.39282 -0.16147,0.0301 -0.25463,-0.0817 -0.31594,-0.37899 -0.0559,-0.27107 -0.0649,-0.57283 -0.0276,-0.91928 0.0617,-0.57196 0.15401,-0.8121 0.31209,-0.8121 0.0716,0 0.21831,0.15175 0.29581,0.30599 0.0907,0.18041 0.11164,0.14859 0.11164,-0.16929 v -0.25078 l -0.10475,-0.048 c -0.12286,-0.0563 -0.30761,-0.0767 -0.40447,-0.0447 -0.17562,0.058 -0.3289,0.24443 -0.41252,0.50185 -0.10145,0.31233 -0.1145,0.412 -0.11287,0.86237 0.001,0.38952 0.005,0.43306 0.0495,0.59907 0.12482,0.46572 0.31794,0.63208 0.62399,0.53753 z m 0.8518,-0.56986 c 0.17345,-0.0879 0.31208,-0.19613 0.31208,-0.24371 0,-0.0237 -0.008,-0.043 -0.0182,-0.043 -0.01,0 -0.0315,-0.0202 -0.0476,-0.0448 -0.0253,-0.0386 -0.029,-0.124 -0.0264,-0.61141 0.004,-0.68462 0.0277,-1.53332 0.0459,-1.61669 0.007,-0.0334 0.007,-0.0607 2.2e-4,-0.0607 -0.0299,0 -0.38855,0.19787 -0.39665,0.21881 -0.005,0.0125 0.009,0.0452 0.0303,0.0725 0.0386,0.0491 0.0391,0.0624 0.0387,1.05069 l -4.5e-4,1.00094 -0.0482,0.11201 c -0.0265,0.0616 -0.0525,0.13512 -0.0577,0.16336 -0.008,0.043 -0.003,0.0513 0.0306,0.0513 0.022,0 0.0839,-0.0222 0.13747,-0.0493 z m -4.26444,-0.5934 c 0.12864,-0.0665 0.46813,-0.49378 0.49708,-0.62558 0.008,-0.0345 0.001,-0.0755 -0.0177,-0.11183 -0.0873,-0.16885 -0.28656,0.0425 -0.51793,0.54938 -0.0523,0.11469 -0.0675,0.21469 -0.0326,0.21469 0.0108,0 0.0428,-0.012 0.0711,-0.0267 z m 5.39848,-0.0587 c 0.0767,-0.0367 0.15813,-0.0841 0.1809,-0.10536 l 0.0414,-0.0387 -0.0489,-0.058 -0.0489,-0.058 0.0123,-0.60675 c 0.0261,-1.28263 0.0328,-1.41868 0.071,-1.4391 0.0758,-0.0406 0.1223,0.0244 0.1643,0.22971 0.0238,0.11619 0.0795,0.20438 0.10942,0.17326 0.01,-0.0103 0.0239,-0.1787 0.0311,-0.37431 0.0168,-0.45691 0.0287,-0.44336 -0.25589,-0.29255 -0.11582,0.0614 -0.33659,0.17674 -0.4906,0.25637 -0.15402,0.0796 -0.29054,0.15787 -0.30338,0.17386 -0.0296,0.0369 -0.0322,0.50046 -0.003,0.57613 l 0.0201,0.0525 0.0349,-0.0428 c 0.0192,-0.0235 0.0401,-0.0823 0.0464,-0.13069 0.021,-0.15992 0.0297,-0.18694 0.0878,-0.27472 0.0629,-0.095 0.19296,-0.19376 0.21878,-0.16617 0.009,0.009 0.009,0.43703 10e-4,0.95043 -0.0144,0.92467 -0.015,0.9348 -0.0611,1.07728 -0.0256,0.0791 -0.0419,0.14841 -0.0363,0.15402 0.0241,0.0241 0.0982,0.006 0.22853,-0.0565 z m 1.39518,-0.66097 c 0.21762,-0.0988 0.38304,-0.45804 0.43431,-0.9432 0.0251,-0.23728 0.0247,-0.81336 -6.2e-4,-0.97185 -0.0475,-0.29756 -0.19092,-0.49947 -0.39683,-0.55881 -0.10059,-0.029 -0.11383,-0.029 -0.20261,5.3e-4 -0.2012,0.0668 -0.3863,0.28736 -0.4661,0.55529 -0.15604,0.52398 -0.0942,1.36109 0.12762,1.72798 0.12863,0.21273 0.30654,0.27979 0.50423,0.19006 z m -0.19286,-0.24246 c -0.14118,-0.0571 -0.20667,-0.42602 -0.18902,-1.06479 0.0116,-0.42142 0.031,-0.55855 0.0995,-0.70348 0.0499,-0.10559 0.15564,-0.2113 0.21142,-0.2113 0.0639,0 0.14782,0.0905 0.17874,0.19276 0.0665,0.21982 0.0499,1.06554 -0.0278,1.41595 -0.0414,0.1869 -0.0911,0.29435 -0.16151,0.34977 -0.0549,0.0432 -0.0562,0.0434 -0.11133,0.0211 z"
           id="path4399"
           inkscape:connector-curvature="0"
           sodipodi:nodetypes="cccscccccccsccccccccscccccsccccccccccccccccccccsccccccccccccccccccccccccccscccccccccccccccccccccscccccccccccccccccccsccccccccccccccccccccccccccccscscccccccscsccccccccccccccccccccccccccccccccccccccccccsccccccccccscccccscccccccccccccccccccccccscccccsccccccccscccccccscccccccscsccccccccscccccccccccccccccccccccccccccccccccccccccccccscccccccccccccccccccccccccccccccscccccccsccccccccccccccsccccccccccccscccccccccccccccccccccccccccccsccccccccccccccccccscccccccccccccccccccccccccccccccccccsccccccccccccccccccsccccccccccccccsccccscscccccccccsscccsccccccsccccccscccccccccccccccccccccccccccccccccccccsccccc" />
      </g>
      <path
         style="fill:none;stroke:#ec1e28;stroke-width:0.53728718;stroke-linecap:butt;stroke-linejoin:miter;stroke-miterlimit:4;stroke-dasharray:none;stroke-opacity:1"
         d="m 98.901996,108.73982 c 0,0 2.881754,-1.95642 7.667054,-1.95642 4.78531,0 7.79925,1.95642 7.79925,1.95642"
         id="path4403"
         inkscape:connector-curvature="0" />
      <text
         id="text4407"
         style="font-style:normal;font-variant:normal;font-weight:bold;font-stretch:normal;font-size:2.1491487px;line-height:1.25;font-family:sans-serif;-inkscape-font-specification:'sans-serif, Bold';font-variant-ligatures:normal;font-variant-caps:normal;font-variant-numeric:normal;font-feature-settings:normal;text-align:center;writing-mode:lr-tb;text-anchor:middle;opacity:1;fill:#ffffff;fill-opacity:1;stroke:none;stroke-width:0.21706404;stroke-linejoin:round;stroke-miterlimit:4;stroke-dasharray:none;stroke-opacity:1;paint-order:markers stroke fill"
         xml:space="preserve"><textPath
           xlink:href="#path4403"
           startOffset="50%"
           id="textPath4409">EL BOSQUE</textPath></text>
      <path
         sodipodi:nodetypes="cc"
         inkscape:connector-curvature="0"
         id="path4413"
         d="m 96.510085,108.0381 c 0,12.10288 9.369205,16.3194 9.369205,16.3194"
         style="fill:none;fill-opacity:1;stroke:#ec1e28;stroke-width:0.06245433;stroke-linecap:butt;stroke-linejoin:miter;stroke-miterlimit:4;stroke-dasharray:none;stroke-opacity:1" />
      <text
         xml:space="preserve"
         style="font-style:normal;font-variant:normal;font-weight:bold;font-stretch:normal;font-size:1.86259544px;line-height:1.25;font-family:sans-serif;-inkscape-font-specification:'sans-serif, Bold';font-variant-ligatures:normal;font-variant-caps:normal;font-variant-numeric:normal;font-feature-settings:normal;text-align:center;writing-mode:lr-tb;text-anchor:middle;opacity:1;fill:#ffffff;fill-opacity:1;stroke:none;stroke-width:0.21706404;stroke-linejoin:round;stroke-miterlimit:4;stroke-dasharray:none;stroke-opacity:1;paint-order:markers stroke fill"
         id="text4417"><textPath
           xlink:href="#path4413"
           startOffset="50%"
           id="textPath4421">JARDIN INFANTIL</textPath></text>
      <path
         style="fill:none;fill-opacity:1;stroke:#ec1e28;stroke-width:0.06245433;stroke-linecap:butt;stroke-linejoin:miter;stroke-miterlimit:4;stroke-dasharray:none;stroke-opacity:1"
         d="m 107.23742,124.3575 c 0,0 9.36921,-4.21652 9.36921,-16.3194"
         id="path4423"
         inkscape:connector-curvature="0"
         sodipodi:nodetypes="cc" />
      <text
         id="text4427"
         style="font-style:normal;font-variant:normal;font-weight:bold;font-stretch:normal;font-size:1.86259557px;line-height:1.25;font-family:sans-serif;-inkscape-font-specification:'sans-serif, Bold';font-variant-ligatures:normal;font-variant-caps:normal;font-variant-numeric:normal;font-feature-settings:normal;text-align:center;writing-mode:lr;text-anchor:middle;opacity:1;fill:#ffffff;fill-opacity:1;stroke:none;stroke-width:0.21706404;stroke-linejoin:round;stroke-miterlimit:4;stroke-dasharray:none;stroke-opacity:1;paint-order:markers stroke fill;"
         xml:space="preserve"><textPath
           xlink:href="#path4423"
           startOffset="50%"
           id="textPath4431">LAS ACACIAS</textPath></text>
    </g>
  </g>
</svg>
